# xmcd CD database file
#
# Track frame offsets:
#	150
#	13490
#	32580
#	55267
#	77165
#	101327
#	119395
#	140885
#	166362
#	184450
#	206822
#
# Disc length: 3032 seconds
#
# Revision: 4
# Processed by: cddbd v1.5.2PL0 Copyright (c) Steve Scherf et al.
# Submitted via: CDex 1.51
#
DISCID=a10bd60b
DTITLE=King's X - King's X
DYEAR=1992
DGENRE=Hard Rock
TTITLE0=The World Around Me
TTITLE1=Prisoner
TTITLE2=The Big Picture
TTITLE3=Lost In Germany
TTITLE4=Chariot Song
TTITLE5=Ooh Song
TTITLE6=Not Just For The Dead
TTITLE7=What I Know About Love
TTITLE8=Black Flag
TTITLE9=Dream In My Life
TTITLE10=Silent Wind
EXTD=YEAR: 1992
EXTT0=
EXTT1=
EXTT2=
EXTT3=
EXTT4=
EXTT5=
EXTT6=
EXTT7=
EXTT8=
EXTT9=
EXTT10=
PLAYORDER=
